<svg width="122" height="159" viewBox="0 0 122 159" fill="none" xmlns="http://www.w3.org/2000/svg">
<path d="M111.417 158.949H0V44.2546C0 19.8525 19.7871 0 44.1087 0H67.3079C91.6296 0 111.417 19.8525 111.417 44.2546V158.949Z" fill="#F7F7F7"/>
<path d="M88.2177 158.949H0.000149497V44.2544C-0.0242016 34.904 2.9269 25.79 8.42377 18.2393C8.6264 17.9622 8.82851 17.6887 9.03695 17.4182C11.6958 13.9195 14.8598 10.8382 18.4247 8.27613C18.6261 8.12913 18.8282 7.98468 19.0334 7.84022C22.0164 5.76911 25.2432 4.07602 28.6403 2.79949C28.8421 2.72277 29.0474 2.64591 29.2528 2.57218C32.3252 1.47212 35.5101 0.71858 38.7487 0.325481C38.9495 0.297963 39.1556 0.276431 39.3617 0.254898C42.5177 -0.0836638 45.7007 -0.0836638 48.8567 0.254898C49.0623 0.276431 49.2684 0.297961 49.4715 0.325775C52.7093 0.718901 55.8934 1.47235 58.965 2.5722C59.1704 2.64592 59.3758 2.72278 59.5781 2.79965C62.9334 4.06008 66.1222 5.7279 69.0734 7.7659C69.2784 7.90722 69.4837 8.05168 69.6859 8.19613C71.6841 9.62721 73.561 11.2215 75.2975 12.9628C76.69 14.3594 77.9876 15.8482 79.1816 17.4191C79.3894 17.6887 79.5915 17.9622 79.7937 18.2389C85.2908 25.7897 88.242 34.9039 88.2177 44.2544V158.949Z" fill="#333333"/>
<path d="M88.2177 158.949H0.000149497V44.2544C-0.0242016 34.904 2.9269 25.79 8.42377 18.2393C8.6264 17.9622 8.82851 17.6887 9.03695 17.4182C11.6958 13.9195 14.8598 10.8382 18.4247 8.27613C18.6261 8.12913 18.8282 7.98468 19.0334 7.84022C22.0164 5.76911 25.2432 4.07602 28.6403 2.79949C28.8421 2.72277 29.0474 2.64591 29.2528 2.57218C32.3252 1.47212 35.5101 0.71858 38.7487 0.325481C38.9495 0.297963 39.1556 0.276431 39.3617 0.254898C42.5177 -0.0836638 45.7007 -0.0836638 48.8567 0.254898C49.0623 0.276431 49.2684 0.297961 49.4715 0.325775C52.7093 0.718901 55.8934 1.47235 58.965 2.5722C59.1704 2.64592 59.3758 2.72278 59.5781 2.79965C62.9334 4.06008 66.1222 5.7279 69.0734 7.7659C69.2784 7.90722 69.4837 8.05168 69.6859 8.19613C71.6841 9.62721 73.561 11.2215 75.2975 12.9628C76.69 14.3594 77.9876 15.8482 79.1816 17.4191C79.3894 17.6887 79.5915 17.9622 79.7937 18.2389C85.2908 25.7897 88.242 34.9039 88.2177 44.2544V158.949Z" fill="black" fill-opacity="0.2"/>
<path d="M81.0442 107.65C83.7415 107.65 85.9282 105.456 85.9282 102.75C85.9282 100.043 83.7415 97.8496 81.0442 97.8496C78.3468 97.8496 76.1602 100.043 76.1602 102.75C76.1602 105.456 78.3468 107.65 81.0442 107.65Z" fill="#FFBD21"/>
<path d="M102.288 155.514H98.5461L96.7656 141.031L102.289 141.032L102.288 155.514Z" fill="#FFB8B8"/>
<path d="M95.8743 154.44H103.092V159H91.3301C91.3301 158.401 91.4476 157.808 91.676 157.255C91.9044 156.702 92.2391 156.199 92.6611 155.776C93.083 155.352 93.584 155.017 94.1353 154.787C94.6867 154.558 95.2776 154.44 95.8743 154.44Z" fill="#1A1A1A"/>
<path d="M120.909 155.514H117.167L115.387 141.031L120.91 141.032L120.909 155.514Z" fill="#FFB8B8"/>
<path d="M114.493 154.44H121.711V159H109.949C109.949 158.401 110.067 157.808 110.295 157.255C110.524 156.702 110.858 156.199 111.28 155.776C111.702 155.352 112.203 155.017 112.754 154.787C113.306 154.558 113.897 154.44 114.493 154.44Z" fill="#1A1A1A"/>
<path d="M83.5171 103.721C83.2479 103.323 83.0689 102.87 82.9928 102.395C82.9167 101.921 82.9452 101.435 83.0765 100.972C83.2078 100.509 83.4385 100.081 83.7525 99.7179C84.0666 99.3545 84.4562 99.0645 84.894 98.8685L97.6155 63.6895L103.875 67.1169L89.35 100.735C89.6295 101.495 89.6215 102.331 89.3276 103.085C89.0337 103.84 88.4742 104.459 87.7552 104.827C87.0362 105.195 86.2077 105.286 85.4266 105.082C84.6455 104.878 83.9661 104.394 83.5171 103.721Z" fill="#FFB8B8"/>
<path d="M118.998 110.331C118.582 110.092 118.224 109.764 117.948 109.371C117.672 108.978 117.485 108.528 117.401 108.055C117.317 107.581 117.337 107.095 117.46 106.63C117.584 106.166 117.807 105.734 118.115 105.365L114.174 68.1514L121.298 68.4779L122.936 105.082C123.519 105.642 123.877 106.397 123.942 107.204C124.008 108.011 123.776 108.815 123.291 109.462C122.805 110.109 122.1 110.554 121.309 110.715C120.518 110.875 119.696 110.739 118.998 110.331Z" fill="#FFB8B8"/>
<path d="M107.634 57.174C111.775 57.174 115.131 53.8063 115.131 49.6519C115.131 45.4976 111.775 42.1299 107.634 42.1299C103.493 42.1299 100.137 45.4976 100.137 49.6519C100.137 53.8063 103.493 57.174 107.634 57.174Z" fill="#FFB8B8"/>
<path d="M118.951 101.867H96.3477L96.3749 101.691C96.4155 101.427 100.403 75.2181 97.4621 66.6437C97.167 65.8011 97.1929 64.8788 97.535 64.0542C97.877 63.2296 98.5109 62.5611 99.3148 62.1774H99.3148C103.519 60.1912 111.588 57.7455 118.399 63.6809C119.401 64.5687 120.184 65.6782 120.685 66.9218C121.186 68.1654 121.392 69.5089 121.287 70.8461L118.951 101.867Z" fill="#FFBD21"/>
<path d="M100.69 79.0919L90.5137 77.0206L95.2836 65.6799C95.569 64.5814 96.2771 63.6415 97.2524 63.0661C98.2276 62.4907 99.3906 62.327 100.486 62.6107C101.582 62.8944 102.52 63.6025 103.096 64.5797C103.672 65.5568 103.838 66.7231 103.558 67.8229L100.69 79.0919Z" fill="#FFBD21"/>
<path d="M113.721 82.9374L113.109 68.8674C112.645 66.2224 114.154 63.7221 116.475 63.3134C118.797 62.9062 121.064 64.7406 121.53 67.405L123.829 80.5521L113.721 82.9374Z" fill="#FFBD21"/>
<path d="M118.197 100.184C121.834 114.081 122.231 131.75 121.25 151.023L116.366 150.41L107.514 113.659L102.63 151.023L97.1351 150.716C95.4936 130.494 93.8954 113.134 96.5246 101.715L118.197 100.184Z" fill="#1A1A1A"/>
<path d="M112.574 55.4651C111.175 56.9599 108.578 56.1574 108.396 54.1153C108.381 53.9568 108.382 53.7972 108.399 53.6389C108.493 52.7343 109.014 51.9131 108.889 50.958C108.861 50.7203 108.772 50.4938 108.632 50.2999C107.518 48.8025 104.902 50.9696 103.85 49.6141C103.205 48.7829 103.963 47.4742 103.468 46.5452C102.815 45.319 100.88 45.9239 99.6664 45.2524C98.3164 44.5053 98.3971 42.4271 99.2858 41.163C100.37 39.6214 102.27 38.7988 104.146 38.6803C106.023 38.5617 107.887 39.0707 109.639 39.7557C111.629 40.534 113.603 41.6097 114.828 43.3658C116.318 45.5014 116.461 48.3725 115.716 50.8697C115.263 52.3887 113.716 54.2444 112.574 55.4651Z" fill="#1A1A1A"/>
<path d="M63.9519 125.72H24.2693C23.7467 125.723 23.2443 125.517 22.8723 125.149C22.5004 124.781 22.2892 124.279 22.2852 123.755V34.8876C22.2892 34.3633 22.5004 33.862 22.8723 33.4937C23.2443 33.1253 23.7467 32.9201 24.2693 32.9229H63.9519C64.4745 32.9201 64.9769 33.1253 65.3489 33.4937C65.7209 33.862 65.932 34.3633 65.9361 34.8876V123.755C65.932 124.279 65.7209 124.781 65.3489 125.149C64.9769 125.517 64.4745 125.723 63.9519 125.72Z" fill="white"/>
<path d="M65.9361 61.6777H22.2852V62.2903H65.9361V61.6777Z" fill="#333333"/>
<path d="M65.9361 61.6777H22.2852V62.2903H65.9361V61.6777Z" fill="black" fill-opacity="0.2"/>
<path d="M66.0865 96.625H22.4355V97.2375H66.0865V96.625Z" fill="#333333"/>
<path d="M66.0865 96.625H22.4355V97.2375H66.0865V96.625Z" fill="black" fill-opacity="0.2"/>
<path d="M36.63 32.9229H36.0195V126.026H36.63V32.9229Z" fill="#333333"/>
<path d="M36.63 32.9229H36.0195V126.026H36.63V32.9229Z" fill="black" fill-opacity="0.2"/>
<path d="M51.8937 32.9229H51.2832V126.026H51.8937V32.9229Z" fill="#333333"/>
<path d="M51.8937 32.9229H51.2832V126.026H51.8937V32.9229Z" fill="black" fill-opacity="0.2"/>
</svg>
