<svg width="23" height="23" viewBox="0 0 23 23" fill="none" xmlns="http://www.w3.org/2000/svg">
<path d="M17.2501 9.58343C17.2501 9.32926 17.1491 9.08551 16.9694 8.90579C16.7896 8.72606 16.5459 8.6251 16.2917 8.6251H5.18464L7.3888 6.43051C7.56926 6.25006 7.67064 6.0053 7.67064 5.7501C7.67064 5.49489 7.56926 5.25014 7.3888 5.06968C7.20834 4.88922 6.96359 4.78784 6.70839 4.78784C6.45318 4.78784 6.20843 4.88922 6.02797 5.06968L2.19464 8.90301C2.06166 9.03778 1.97158 9.20891 1.93576 9.39482C1.89995 9.58072 1.92 9.77307 1.99339 9.9476C2.06528 10.1226 2.18737 10.2724 2.34427 10.3782C2.50117 10.4839 2.68585 10.5408 2.87505 10.5418H16.2917C16.5459 10.5418 16.7896 10.4408 16.9694 10.2611C17.1491 10.0814 17.2501 9.8376 17.2501 9.58343ZM21.0067 13.0526C20.9348 12.8776 20.8127 12.7278 20.6558 12.622C20.4989 12.5163 20.3142 12.4594 20.1251 12.4584H6.70839C6.45422 12.4584 6.21046 12.5594 6.03074 12.7391C5.85102 12.9188 5.75005 13.1626 5.75005 13.4168C5.75005 13.6709 5.85102 13.9147 6.03074 14.0944C6.21046 14.2741 6.45422 14.3751 6.70839 14.3751H17.8155L15.6113 16.5697C15.5215 16.6588 15.4502 16.7648 15.4015 16.8815C15.3529 16.9983 15.3278 17.1236 15.3278 17.2501C15.3278 17.3766 15.3529 17.5019 15.4015 17.6186C15.4502 17.7354 15.5215 17.8414 15.6113 17.9305C15.7004 18.0203 15.8064 18.0916 15.9232 18.1403C16.0399 18.1889 16.1652 18.214 16.2917 18.214C16.4182 18.214 16.5435 18.1889 16.6603 18.1403C16.7771 18.0916 16.883 18.0203 16.9721 17.9305L20.8055 14.0972C20.9384 13.9624 21.0285 13.7913 21.0643 13.6054C21.1002 13.4195 21.0801 13.2271 21.0067 13.0526V13.0526Z" fill="#FFBD21"/>
</svg>
