<svg width="192" height="51" viewBox="0 0 192 51" fill="none" xmlns="http://www.w3.org/2000/svg">
<path d="M7.03102 23.365C7.03102 24.5001 7.30534 25.5595 7.85399 26.5433C8.42155 27.5082 9.15938 28.3595 10.0675 29.0973C10.9756 29.8163 12.0161 30.3838 13.1891 30.8C14.362 31.1973 15.5634 31.396 16.7931 31.396C17.1715 31.396 17.5593 31.3676 17.9566 31.3108C18.3539 31.2352 18.7134 31.1122 19.035 30.9419C19.3566 30.7717 19.6215 30.5541 19.8296 30.2892C20.0377 30.0054 20.1417 29.6554 20.1417 29.2392C20.1417 28.4446 19.858 27.6595 19.2904 26.8838C18.7417 26.1082 18.0134 25.342 17.1053 24.5852C16.1972 23.8095 15.1566 23.0433 13.9837 22.2866C12.8107 21.5109 11.6188 20.7447 10.408 19.988C9.19722 19.2312 8.00534 18.4744 6.83237 17.7177C5.65941 16.942 4.61888 16.1758 3.71078 15.4191C2.80267 14.6434 2.06484 13.8677 1.49728 13.0921C0.948634 12.2975 0.674312 11.5029 0.674312 10.7083C0.674312 9.95154 0.863499 9.25155 1.24187 8.60831C1.63917 7.94615 2.15944 7.35021 2.80267 6.82048C3.44591 6.29076 4.1932 5.81779 5.04455 5.40157C5.89589 4.98536 6.78508 4.63536 7.7121 4.35158C8.63912 4.0678 9.56614 3.85969 10.4932 3.72726C11.4391 3.57591 12.3377 3.50024 13.1891 3.50024C13.8134 3.50024 14.4945 3.51916 15.2323 3.55699C15.9891 3.57591 16.6891 3.66105 17.3323 3.8124C17.9945 3.94483 18.5431 4.15294 18.9782 4.43672C19.4134 4.7205 19.6309 5.12725 19.6309 5.65698C19.6309 5.82725 19.6025 6.04481 19.5458 6.30968C19.489 6.55562 19.3282 6.97183 19.0634 7.55832C18.7985 8.10696 18.4863 8.52317 18.1269 8.80695C17.7863 9.07182 17.3418 9.20425 16.7931 9.20425C16.0174 9.20425 15.1945 9.11911 14.3242 8.94885C13.4729 8.75966 12.6121 8.66506 11.7418 8.66506C11.2688 8.66506 10.7864 8.69344 10.2945 8.7502C9.82154 8.78804 9.38641 8.87317 8.98911 9.0056C8.59182 9.11911 8.2702 9.29884 8.02426 9.54479C7.77831 9.77181 7.65534 10.0651 7.65534 10.4245C7.65534 10.784 7.91074 11.1907 8.42155 11.6448C8.95128 12.0988 9.64181 12.6002 10.4932 13.1488C11.3634 13.6975 12.3472 14.3029 13.4445 14.965C14.5418 15.6083 15.658 16.3082 16.7931 17.065C17.9472 17.8028 19.0728 18.5974 20.1701 19.4488C21.2674 20.2812 22.2417 21.1704 23.0931 22.1163C23.9633 23.0433 24.6539 24.0271 25.1647 25.0676C25.6944 26.1082 25.9593 27.1865 25.9593 28.3028C25.9593 29.6649 25.6471 30.8662 25.0228 31.9068C24.3985 32.9473 23.5944 33.8176 22.6106 34.5176C21.6269 35.2176 20.539 35.7378 19.3471 36.0784C18.1553 36.4378 16.9918 36.6176 15.8566 36.6176C14.7026 36.6176 13.5296 36.4757 12.3377 36.1919C11.1648 35.927 10.0296 35.5392 8.93236 35.0284C7.83507 34.5365 6.804 33.9405 5.83914 33.2406C4.8932 32.5216 4.07023 31.7271 3.37024 30.8568C2.67024 29.9676 2.11214 29.0122 1.69593 27.9906C1.29863 26.969 1.09998 25.9001 1.09998 24.7839C1.09998 24.3109 1.12836 23.8379 1.18512 23.365C1.26079 22.8731 1.38377 22.4474 1.55403 22.0879C1.7243 21.7096 1.96079 21.4069 2.26349 21.1798C2.56619 20.9339 2.95402 20.8109 3.42699 20.8109C3.57834 20.8109 3.74861 20.8298 3.9378 20.8677C4.12699 20.8866 4.45807 20.9717 4.93104 21.1231C5.47968 21.2933 5.96211 21.5677 6.37832 21.946C6.81345 22.3055 7.03102 22.7785 7.03102 23.365ZM34.2741 24.9541C34.2741 27.4892 34.6619 29.4473 35.4376 30.8284C36.2132 32.2095 37.3389 32.9 38.8146 32.9C39.7416 32.9 40.5929 32.6257 41.3686 32.077C42.1632 31.5284 42.8443 30.7622 43.4118 29.7784C43.9794 28.7946 44.4145 27.6311 44.7172 26.2879C45.0388 24.9258 45.1997 23.4501 45.1997 21.8609C45.1997 20.8961 45.1618 20.0636 45.0861 19.3636C45.0105 18.6447 44.9253 18.0109 44.8307 17.4623C44.7551 16.8947 44.6794 16.3934 44.6037 15.9583C44.528 15.5231 44.4902 15.1069 44.4902 14.7096C44.4902 14.1042 44.7456 13.6691 45.2564 13.4042C45.7672 13.1204 46.5807 12.9785 47.6969 12.9785C49.1158 12.9785 50.2131 13.3002 50.9888 13.9434C51.7834 14.5866 52.1807 15.5231 52.1807 16.7528C52.1807 20.1015 51.8496 23.1095 51.1874 25.7771C50.5442 28.4446 49.6077 30.7149 48.378 32.5879C47.1672 34.4419 45.6915 35.8703 43.951 36.873C42.2105 37.8757 40.2619 38.377 38.1051 38.377C36.5727 38.377 35.1538 38.0554 33.8484 37.4121C32.5619 36.7878 31.4457 35.9081 30.4998 34.773C29.5727 33.6189 28.8444 32.2568 28.3146 30.6865C27.7849 29.0973 27.5201 27.3568 27.5201 25.4649C27.5201 24.746 27.539 23.9798 27.5768 23.1663C27.6147 22.3528 27.6714 21.4825 27.7471 20.5555C27.8228 19.6096 27.9174 18.588 28.0309 17.4907C28.1633 16.3934 28.3052 15.2015 28.4565 13.915C28.5133 13.3664 28.7687 12.9312 29.2227 12.6096C29.6957 12.2691 30.2917 12.0988 31.0106 12.0988C31.6538 12.0988 32.2592 12.165 32.8268 12.2975C33.3943 12.4299 33.8768 12.6096 34.2741 12.8367C34.6903 13.0637 35.0119 13.3285 35.2389 13.6312C35.4849 13.9339 35.6078 14.2556 35.6078 14.5961C35.6078 14.9366 35.5322 15.4758 35.3808 16.2137C35.2484 16.9326 35.097 17.765 34.9268 18.7109C34.7754 19.638 34.6241 20.6501 34.4727 21.7474C34.3403 22.8258 34.2741 23.8947 34.2741 24.9541ZM56.0969 12.0988C56.0969 11.815 56.2198 11.5407 56.4658 11.2759C56.7117 10.9921 57.0333 10.7461 57.4306 10.538C57.8279 10.311 58.2725 10.1313 58.7644 9.99884C59.2752 9.84749 59.786 9.77181 60.2968 9.77181C60.5806 9.77181 60.8171 9.84749 61.0063 9.99884C61.2144 10.1502 61.3941 10.4434 61.5455 10.8786C61.6968 11.2948 61.8293 11.8907 61.9428 12.6664C62.0752 13.4231 62.1982 14.4164 62.3117 15.6461C62.3874 16.0245 62.4536 16.3177 62.5103 16.5258C62.586 16.715 62.6806 16.8096 62.7941 16.8096C62.9644 16.8096 63.1346 16.5164 63.3049 15.9299C64.686 11.938 66.6819 9.94208 69.2927 9.94208C70.5035 9.94208 71.6008 10.3205 72.5846 11.0772C73.5873 11.834 74.5143 13.0731 75.3656 14.7947C76.2359 16.4974 77.0589 18.7488 77.8345 21.5488C78.6102 24.3298 79.3859 27.7636 80.1615 31.85C80.1994 32.0581 80.2278 32.2473 80.2467 32.4176C80.2656 32.5879 80.2751 32.7487 80.2751 32.9C80.2751 33.3351 80.171 33.7135 79.9629 34.0351C79.7737 34.3378 79.5183 34.5932 79.1967 34.8014C78.8751 34.9905 78.5156 35.1324 78.1183 35.227C77.721 35.3405 77.3237 35.3973 76.9264 35.3973C76.1318 35.3973 75.5548 35.3122 75.1954 35.1419C74.8548 34.9716 74.6373 34.65 74.5427 34.177C73.994 31.3014 73.4548 28.7473 72.9251 26.5149C72.4143 24.2825 71.9035 22.4096 71.3927 20.8961C70.9008 19.3636 70.4089 18.2001 69.917 17.4055C69.4251 16.6109 68.9333 16.2137 68.4414 16.2137C67.9495 16.2137 67.486 16.5258 67.0508 17.1501C66.6346 17.7555 66.2279 18.7109 65.8306 20.0163C65.4333 21.3217 65.0454 22.9771 64.6671 24.9825C64.3076 26.9879 63.9576 29.3811 63.6171 32.1622C63.5225 32.9189 63.1441 33.5243 62.482 33.9784C61.8198 34.4324 60.9779 34.6595 59.9563 34.6595C59.2752 34.6595 58.755 34.5176 58.3955 34.2338C58.036 33.95 57.8374 33.5622 57.7996 33.0703C57.6293 29.1352 57.4401 25.9001 57.232 23.365C57.0428 20.8109 56.8631 18.7677 56.6928 17.2353C56.5225 15.6839 56.3806 14.5299 56.2671 13.7731C56.1536 13.0164 56.0969 12.4583 56.0969 12.0988ZM90.3209 10.3678C91.5885 10.3678 92.8939 10.538 94.2371 10.8786C95.5804 11.2002 96.8101 11.6259 97.9263 12.1556C99.0425 12.6664 99.9601 13.2434 100.679 13.8866C101.398 14.5299 101.757 15.1542 101.757 15.7596C101.757 16.0623 101.625 16.4028 101.36 16.7812C101.095 17.1407 100.774 17.4907 100.395 17.8312C100.017 18.1528 99.6006 18.4272 99.1465 18.6542C98.7114 18.8623 98.3236 18.9663 97.983 18.9663C97.529 18.9663 97.0182 18.7771 96.4506 18.3988C95.902 18.0204 95.2871 17.6042 94.606 17.1501C93.9439 16.6772 93.2155 16.2515 92.4209 15.8731C91.6263 15.4947 90.7655 15.3056 89.8385 15.3056C89.2331 15.3056 88.7318 15.4569 88.3345 15.7596C87.9561 16.0434 87.7669 16.4501 87.7669 16.9799C87.7669 17.4528 87.9939 17.9353 88.448 18.4272C88.902 18.9001 89.498 19.392 90.2358 19.9028C90.9926 20.4136 91.8439 20.9528 92.7898 21.5204C93.7358 22.0879 94.7006 22.6933 95.6844 23.3366C96.6871 23.9798 97.6614 24.6798 98.6074 25.4366C99.5533 26.1933 100.395 27.0163 101.133 27.9055C101.89 28.7946 102.495 29.769 102.949 30.8284C103.403 31.8689 103.63 33.0041 103.63 34.2338C103.63 35.2932 103.441 36.2581 103.063 37.1284C102.684 37.9986 102.145 38.7459 101.445 39.3702C100.745 39.9946 99.9128 40.477 98.9479 40.8175C97.983 41.1581 96.9236 41.3283 95.7695 41.3283C94.3128 41.3283 92.9696 41.1013 91.7398 40.6473C90.5101 40.2121 89.4507 39.6067 88.5615 38.8311C87.6723 38.0554 86.9723 37.1284 86.4615 36.05C85.9696 34.9716 85.7237 33.7892 85.7237 32.5027C85.7237 30.8379 86.0169 29.6271 86.6034 28.8703C87.2088 28.1136 88.1547 27.7352 89.4412 27.7352C90.2358 27.7352 90.8696 27.8865 91.3425 28.1892C91.8155 28.4919 92.052 28.8609 92.052 29.296C92.052 29.523 92.0142 29.7595 91.9385 30.0054C91.8628 30.2325 91.7777 30.4784 91.6831 30.7433C91.6074 30.9892 91.5317 31.2541 91.4561 31.5379C91.3993 31.8216 91.3709 32.1054 91.3709 32.3892C91.3709 32.8811 91.4844 33.3541 91.7115 33.8081C91.9385 34.2622 92.2412 34.6595 92.6196 35C93.0169 35.3595 93.4709 35.6432 93.9817 35.8513C94.4925 36.0595 95.0317 36.1635 95.5993 36.1635C97.1128 36.1635 97.8695 35.5392 97.8695 34.2905C97.8695 33.3068 97.4817 32.3797 96.706 31.5095C95.9304 30.6203 94.956 29.7595 93.7831 28.9271C92.6101 28.0757 91.3425 27.2244 89.9804 26.373C88.6372 25.5217 87.3791 24.6325 86.2061 23.7055C85.0331 22.7785 84.0588 21.7947 83.2831 20.7542C82.5075 19.6947 82.1196 18.5501 82.1196 17.3204C82.1196 16.2988 82.3278 15.3623 82.744 14.511C83.1791 13.6596 83.7656 12.9312 84.5034 12.3258C85.2412 11.7015 86.102 11.2191 87.0858 10.8786C88.0885 10.538 89.1669 10.3678 90.3209 10.3678ZM103.857 7.67183C103.857 5.6286 105.182 4.60699 107.83 4.60699C108.284 4.60699 108.682 4.72996 109.022 4.9759C109.363 5.22185 109.561 5.56238 109.618 5.99752C109.788 7.15156 109.94 8.29615 110.072 9.43127C110.205 10.5664 110.328 11.8434 110.441 13.2623C110.573 14.6623 110.696 16.2893 110.81 18.1434C110.942 19.9785 111.084 22.1731 111.236 24.7271C111.236 24.992 111.273 25.1812 111.349 25.2947C111.444 25.4082 111.548 25.4649 111.661 25.4649C111.832 25.4649 112.002 25.2947 112.172 24.9541C112.815 23.5352 113.534 22.2677 114.329 21.1515C115.123 20.0163 115.975 19.0609 116.883 18.2853C117.791 17.4907 118.746 16.8947 119.749 16.4974C120.771 16.0812 121.811 15.8731 122.871 15.8731C124.271 15.8731 125.538 16.2704 126.673 17.065C127.808 17.8596 128.773 18.9853 129.568 20.442C130.363 21.8987 130.977 23.6677 131.413 25.7487C131.848 27.8109 132.065 30.119 132.065 32.673C132.065 33.373 132.008 33.95 131.895 34.4041C131.8 34.8392 131.63 35.1892 131.384 35.4541C131.138 35.7189 130.798 35.8986 130.363 35.9932C129.927 36.1067 129.388 36.1635 128.745 36.1635C127.856 36.1635 127.213 35.9932 126.815 35.6527C126.437 35.3122 126.248 34.7824 126.248 34.0635C126.248 32.2852 126.125 30.6108 125.879 29.0406C125.652 27.4514 125.33 26.0609 124.914 24.869C124.498 23.6771 124.006 22.7312 123.438 22.0312C122.89 21.3312 122.294 20.9812 121.65 20.9812C120.194 20.9812 118.737 22.1636 117.28 24.5285C115.842 26.8933 114.338 30.4595 112.768 35.227C112.617 35.6622 112.446 36.0216 112.257 36.3054C112.068 36.5892 111.841 36.8162 111.576 36.9865C111.33 37.1567 111.028 37.2703 110.668 37.327C110.309 37.4027 109.883 37.4405 109.391 37.4405C108.388 37.4405 107.669 37.2513 107.234 36.873C106.818 36.4946 106.591 35.8703 106.553 35C106.44 31.7081 106.232 28.5676 105.929 25.5784C105.645 22.5704 105.342 19.8555 105.021 17.4339C104.718 14.9934 104.444 12.9312 104.198 11.2475C103.971 9.54479 103.857 8.3529 103.857 7.67183ZM140.125 6.05427C139.576 6.05427 139.056 5.9786 138.564 5.82725C138.091 5.65698 137.675 5.42995 137.315 5.14617C136.975 4.84347 136.7 4.49347 136.492 4.09618C136.284 3.69888 136.18 3.26375 136.18 2.79078C136.18 1.99619 136.492 1.35296 137.117 0.861068C137.76 0.36918 138.611 0.123236 139.671 0.123236C140.162 0.123236 140.635 0.21783 141.089 0.407018C141.544 0.577287 141.941 0.813771 142.281 1.11647C142.641 1.41917 142.925 1.77863 143.133 2.19484C143.341 2.59214 143.445 3.00835 143.445 3.44348C143.445 4.25699 143.142 4.90023 142.537 5.3732C141.95 5.82725 141.146 6.05427 140.125 6.05427ZM136.237 14.7096C136.237 14.0475 136.521 13.5083 137.088 13.0921C137.675 12.6569 138.441 12.4394 139.387 12.4394C141.089 12.4394 141.998 13.0258 142.111 14.1988C142.187 15.0123 142.262 15.9299 142.338 16.9515C142.433 17.9731 142.518 19.0609 142.594 20.215C142.688 21.3501 142.764 22.5325 142.821 23.7622C142.896 24.973 142.962 26.1744 143.019 27.3663C143.076 28.5392 143.123 29.6744 143.161 30.7717C143.199 31.8689 143.218 32.8716 143.218 33.7797C143.218 34.7257 142.877 35.4351 142.196 35.9081C141.534 36.3811 140.56 36.6176 139.273 36.6176C138.687 36.6176 138.223 36.4757 137.883 36.1919C137.561 35.927 137.4 35.5297 137.4 35C137.4 32.3892 137.334 29.9487 137.202 27.6784C137.088 25.3893 136.956 23.3555 136.804 21.5771C136.672 19.7988 136.54 18.3231 136.407 17.1501C136.294 15.9583 136.237 15.1447 136.237 14.7096ZM150.71 44.7053C151.202 44.7053 151.608 44.6297 151.93 44.4783C152.252 44.3459 152.507 44.0905 152.696 43.7121C152.885 43.3337 153.018 42.8229 153.093 42.1797C153.169 41.5364 153.207 40.7135 153.207 39.7108C153.207 35.8324 153.065 32.4933 152.781 29.6933C152.516 26.8933 152.223 24.5285 151.902 22.5987C151.58 20.669 151.277 19.1271 150.993 17.9731C150.729 16.8001 150.596 15.911 150.596 15.3056C150.596 14.6623 150.889 14.142 151.476 13.7448C152.062 13.3475 152.866 13.1299 153.888 13.0921C155.345 13.0921 156.224 13.5177 156.527 14.3691C156.924 15.7123 157.284 17.2636 157.606 19.0231C157.946 20.7636 158.23 22.646 158.457 24.6703C158.703 26.6947 158.883 28.8136 158.996 31.0271C159.129 33.2216 159.195 35.4351 159.195 37.6675C159.195 40.0324 159.053 42.0189 158.769 43.627C158.504 45.254 158.041 46.5594 157.379 47.5431C156.735 48.5269 155.884 49.2269 154.824 49.6431C153.765 50.0783 152.45 50.2958 150.88 50.2958C149.953 50.2958 148.979 50.1729 147.957 49.9269C146.954 49.6999 145.971 49.3877 145.006 48.9904C144.041 48.6121 143.133 48.158 142.281 47.6283C141.411 47.0986 140.654 46.5405 140.011 45.954C139.349 45.3864 138.829 44.7999 138.45 44.1945C138.053 43.5891 137.854 43.0026 137.854 42.4351C137.854 42.1513 137.968 41.8297 138.195 41.4702C138.422 41.1108 138.706 40.7702 139.046 40.4486C139.368 40.1459 139.718 39.8905 140.096 39.6824C140.475 39.4743 140.815 39.3702 141.118 39.3702C141.477 39.3702 141.856 39.5027 142.253 39.7675C142.631 40.0324 143.048 40.3635 143.502 40.7608C143.937 41.1581 144.41 41.5837 144.921 42.0378C145.412 42.4918 145.952 42.9175 146.538 43.3148C147.143 43.7121 147.787 44.0432 148.468 44.308C149.149 44.5729 149.896 44.7053 150.71 44.7053ZM154.427 8.38128C153.879 8.36236 153.368 8.26777 152.895 8.0975C152.441 7.92723 152.043 7.70021 151.703 7.41642C151.362 7.11372 151.088 6.77319 150.88 6.39481C150.691 5.99752 150.596 5.57184 150.596 5.11779C150.596 4.3232 150.899 3.67997 151.504 3.18808C152.11 2.69619 152.923 2.45025 153.945 2.45025C154.456 2.45025 154.938 2.54484 155.392 2.73403C155.865 2.9043 156.281 3.15024 156.641 3.47186C157 3.77456 157.284 4.13402 157.492 4.55023C157.7 4.94752 157.804 5.3732 157.804 5.82725C157.804 6.64075 157.511 7.27453 156.924 7.72858C156.338 8.16372 155.506 8.38128 154.427 8.38128ZM165.75 25.5784C165.75 25.2568 165.788 24.8974 165.864 24.5001C165.939 24.1028 165.977 23.6677 165.977 23.1947C165.977 22.8731 165.835 22.6271 165.551 22.4569C165.287 22.2866 164.984 22.0974 164.643 21.8893C164.303 21.6812 163.991 21.4163 163.707 21.0947C163.442 20.7731 163.31 20.3096 163.31 19.7042C163.31 19.269 163.423 18.8339 163.65 18.3988C163.896 17.9636 164.246 17.5663 164.7 17.2069C165.816 16.3745 166.97 15.6272 168.162 14.965C169.373 14.3029 170.574 13.7448 171.766 13.2907C172.977 12.8367 174.169 12.4867 175.342 12.2407C176.515 11.9948 177.641 11.8718 178.719 11.8718C180.535 11.8718 182.238 12.2123 183.827 12.8934C185.435 13.5556 186.826 14.4731 187.999 15.6461C189.19 16.8001 190.127 18.1623 190.808 19.7325C191.508 21.2839 191.858 22.9487 191.858 24.7271C191.858 26.4676 191.489 28.123 190.751 29.6933C190.032 31.2446 189.058 32.6068 187.828 33.7797C186.599 34.9527 185.151 35.8797 183.486 36.5608C181.841 37.2608 180.1 37.6108 178.265 37.6108C176.468 37.6108 174.803 37.3081 173.27 36.7027C171.738 36.0973 170.414 35.2649 169.297 34.2054C168.181 33.127 167.311 31.8595 166.687 30.4027C166.062 28.9271 165.75 27.319 165.75 25.5784ZM178.889 32.5027C179.684 32.5027 180.507 32.3419 181.358 32.0203C182.209 31.6987 182.985 31.2352 183.685 30.6298C184.404 30.0054 184.99 29.2487 185.445 28.3595C185.918 27.4703 186.154 26.4676 186.154 25.3514C186.154 24.2163 185.946 23.1568 185.53 22.1731C185.113 21.1893 184.536 20.3379 183.799 19.619C183.08 18.8812 182.219 18.3042 181.216 17.888C180.232 17.4718 179.164 17.2636 178.009 17.2636C175.909 17.2636 174.301 17.8123 173.185 18.9096C172.069 19.988 171.511 21.6528 171.511 23.9041C171.511 25.1339 171.691 26.2784 172.05 27.3379C172.428 28.3784 172.949 29.2865 173.611 30.0622C174.273 30.819 175.049 31.4149 175.938 31.85C176.846 32.2852 177.83 32.5027 178.889 32.5027Z" fill="#FFBD21"/>
</svg>
